<svg width="56" height="56" viewBox="0 0 56 56" fill="none" xmlns="http://www.w3.org/2000/svg">
<path d="M52.4336 49.4688C51.918 51.3438 49.9609 53.2773 48.0977 53.793C48.0977 53.793 42.9062 55.1875 28.0234 55.1875C13.1406 55.1875 7.94922 53.793 7.94922 53.793C6.07422 53.2891 4.09375 51.3555 3.54297 49.4922C3.54297 49.4922 0.835938 40.2812 0.835938 28C0.835938 15.7188 3.54297 6.50781 3.54297 6.50781C4.09375 4.65625 6.08594 2.76953 7.98437 2.32422C7.98437 2.32422 14.4883 0.8125 28.0234 0.8125C41.5586 0.8125 48.0625 2.32422 48.0625 2.32422C49.9492 2.76953 51.918 4.65625 52.4336 6.53125C52.4336 6.53125 55.2109 16.6328 55.2109 28C55.2109 39.3672 52.4336 49.4688 52.4336 49.4688Z" fill="#125694"/>
<path d="M24.8828 44.7812V43.4805H20.5586L26.3946 12.5195H31.1641V11.2188H16.0117V12.5195H20.336L14.2773 43.4805H9.50781V44.7812H24.6719H24.8828Z" fill="#F6F5F5"/>
<path d="M29.2188 24.6484L42.4258 12.5195H46.5391V11.2188H35.0547V12.5195H40.0352L24.2383 27.2383L33.9766 43.4805H29.2188V44.7812H45.4492V43.4805H40.9023L29.2188 24.6484Z" fill="#F6F5F5"/>
</svg>
