<svg width="154" height="154" viewBox="0 0 154 154" fill="none" xmlns="http://www.w3.org/2000/svg">
<path fill-rule="evenodd" clip-rule="evenodd" d="M84.5603 20.6038C84.5603 20.6038 72.7546 25.3411 59.7909 32.0184C46.8273 38.6958 53.0685 39.3575 54.8731 39.192C56.6778 39.0266 60.4526 38.8612 55.6853 42.1247C50.9179 45.3881 19.2907 62.9838 12.3878 83.3618C5.48486 103.74 37.8188 89.0616 47.489 94.4305C57.1591 99.7995 38.9769 110.417 44.3759 118.734C49.7749 127.05 85.3874 114.493 108.352 102.612C131.317 90.7309 140.987 79.2862 139.829 73.5864C138.671 67.8866 123.767 73.7518 122.775 67.5557C121.782 61.3596 133.603 52.7272 138.836 45.2378C144.07 37.7483 142.355 31.7928 139.002 29.1008C133.106 24.3786 114.578 33.8231 104.577 35.1315C94.5763 36.4399 95.2228 31.3868 97.5239 27.1458C99.8249 22.9047 100.622 15.0694 84.5603 20.6038Z" fill="#EEF8FD"/>
<path fill-rule="evenodd" clip-rule="evenodd" d="M139.618 67.2699C139.844 67.4804 140.19 67.4804 140.415 67.2699L142.145 65.5404C142.355 65.3148 142.355 64.9689 142.145 64.7433L140.415 63.0138C140.205 62.7883 139.844 62.7883 139.633 62.9988L139.618 63.0138L137.889 64.7433C137.663 64.9539 137.663 65.3148 137.874 65.5254L137.889 65.5404L139.618 67.2699ZM140.009 67.7211C139.784 67.7211 139.573 67.6308 139.408 67.4804L137.678 65.7509C137.347 65.405 137.347 64.8787 137.678 64.5328L139.408 62.8033C139.573 62.6529 139.784 62.5627 140.009 62.5627C140.235 62.5627 140.46 62.6379 140.626 62.8033L142.355 64.5328C142.686 64.8787 142.686 65.405 142.355 65.7509L140.626 67.4804C140.46 67.6609 140.235 67.7361 140.009 67.7211Z" fill="#0B76BB"/>
<path fill-rule="evenodd" clip-rule="evenodd" d="M129.497 18.9495C128.655 18.9043 127.918 19.536 127.873 20.3932C127.828 21.2053 128.414 21.9122 129.211 22.0024H129.497C130.339 21.9122 130.956 21.1602 130.866 20.318C130.805 19.6112 130.234 19.0247 129.497 18.9495ZM129.497 22.2881C128.489 22.3032 127.677 21.4911 127.662 20.4834C127.647 19.4758 128.459 18.6637 129.467 18.6487C130.474 18.6336 131.287 19.4457 131.302 20.4534V20.4834C131.302 21.4911 130.505 22.2881 129.497 22.2881Z" fill="#0B76BB"/>
<path fill-rule="evenodd" clip-rule="evenodd" d="M118.413 28.0481C118.172 28.0481 117.947 28.1533 117.797 28.3338C117.616 28.5444 117.586 28.8451 117.691 29.1008L119.797 34.4547C119.962 34.8457 120.413 35.0563 120.819 34.9059C120.955 34.8608 121.075 34.7705 121.15 34.6502L124.715 30.1385C124.895 29.9279 124.94 29.6272 124.835 29.3715C124.73 29.1158 124.489 28.9354 124.218 28.8903L118.533 28.0481H118.413ZM120.549 35.1766H120.398C120.037 35.1315 119.737 34.8908 119.601 34.56L117.466 29.2061C117.345 28.8752 117.405 28.4992 117.616 28.2135C117.842 27.9278 118.203 27.7774 118.564 27.8375L124.248 28.6647C124.609 28.7098 124.91 28.9504 125.046 29.2813C125.181 29.6121 125.136 30.0031 124.895 30.2889L121.331 34.8006C121.15 35.0412 120.864 35.1766 120.549 35.1766Z" fill="#6D9ED4"/>
<path fill-rule="evenodd" clip-rule="evenodd" d="M23.5166 84.219C22.7045 84.219 22.0428 84.8807 22.0428 85.6928C22.0428 86.5049 22.7045 87.1666 23.5166 87.1666C24.3287 87.1666 24.9905 86.5049 24.9905 85.6928V85.6778C24.9905 84.8807 24.3438 84.234 23.5467 84.219H23.5166ZM23.5166 87.4072C22.5391 87.4223 21.7571 86.6402 21.742 85.6627C21.727 84.6852 22.509 83.9032 23.4866 83.8881C24.4641 83.8731 25.2461 84.6551 25.2612 85.6326V85.6477C25.2762 86.6102 24.5242 87.3922 23.5617 87.4072C23.5467 87.4223 23.5317 87.4223 23.5166 87.4072Z" fill="#B3D4EF"/>
<path fill-rule="evenodd" clip-rule="evenodd" d="M129.858 69.9168C129.166 69.9168 128.595 70.4733 128.58 71.1651C128.64 71.8569 129.271 72.3682 129.963 72.308C130.55 72.2479 131.031 71.7967 131.091 71.1952V71.1651C131.091 70.4883 130.535 69.9319 129.858 69.9168ZM129.858 72.6991C129.001 72.7141 128.309 72.0223 128.294 71.1651C128.279 70.3078 128.971 69.616 129.828 69.601C130.685 69.586 131.377 70.2778 131.392 71.135V71.15C131.407 71.9922 130.745 72.684 129.903 72.6991C129.888 72.7141 129.873 72.7141 129.858 72.6991Z" fill="#B3D4EF"/>
<path fill-rule="evenodd" clip-rule="evenodd" d="M35.8938 90.2045C35.7735 90.1894 35.6532 90.2197 35.563 90.2949C35.3524 90.415 35.2321 90.6256 35.2321 90.8662V95.9945C35.2321 96.2353 35.3524 96.4609 35.563 96.581C35.7735 96.6865 36.0141 96.6865 36.2247 96.581L40.6762 94.0094C40.8717 93.889 41.0071 93.6635 41.0071 93.4228C41.0071 93.1973 40.8717 92.9867 40.6762 92.8664L36.2247 90.2949C36.1194 90.2197 35.9991 90.1894 35.8938 90.2045ZM35.8938 96.957C35.7284 96.957 35.563 96.9121 35.4276 96.8217C35.1268 96.6562 34.9464 96.3404 34.9464 95.9945V90.8662C34.9614 90.3398 35.3975 89.9037 35.9239 89.9189C36.0893 89.9189 36.2397 89.9638 36.3751 90.0541L40.8266 92.6107C41.1124 92.7763 41.2928 93.092 41.2928 93.4228C41.2928 93.7687 41.1124 94.0846 40.8266 94.265L36.3751 96.8217C36.2247 96.8969 36.0592 96.942 35.8938 96.957Z" fill="#0B76BB"/>
<path fill-rule="evenodd" clip-rule="evenodd" d="M91.1083 96.0855L100.024 89.8888L111.533 106.448L102.618 112.645L91.1083 96.0855Z" fill="#058ACC"/>
<path fill-rule="evenodd" clip-rule="evenodd" d="M101.645 108.612L107.435 104.522C108.999 103.409 111.179 103.77 112.307 105.334C112.307 105.349 112.322 105.349 112.322 105.364L126.94 126.013C128.053 127.592 127.677 129.772 126.098 130.9L120.323 135.006C118.744 136.119 116.563 135.743 115.435 134.164L100.802 113.5C99.6895 111.906 100.065 109.725 101.645 108.612Z" fill="#005D9F"/>
<mask id="mask0" mask-type="alpha" maskUnits="userSpaceOnUse" x="52" y="45" width="53" height="52">
<path d="M52.7827 71.0296C52.7827 85.3241 64.3705 96.912 78.6648 96.912C92.9593 96.912 104.547 85.3241 104.547 71.0296C104.547 56.7353 92.9593 45.1476 78.6648 45.1476C64.3705 45.1476 52.7827 56.7353 52.7827 71.0296Z" fill="white"/>
</mask>
<g mask="url(#mask0)">
<path fill-rule="evenodd" clip-rule="evenodd" d="M52.7827 71.0296C52.7827 85.3241 64.3705 96.912 78.6648 96.912C92.9593 96.912 104.547 85.3241 104.547 71.0296C104.547 56.7353 92.9593 45.1476 78.6648 45.1476C64.3705 45.1476 52.7827 56.7353 52.7827 71.0296Z" fill="#FDF3DE"/>
</g>
<path fill-rule="evenodd" clip-rule="evenodd" d="M82.7255 94.7012C69.7768 97.0323 57.3846 88.4448 55.0536 75.4964C52.7225 62.5477 61.3098 50.1555 74.2434 47.8245C87.177 45.4934 99.5842 54.0807 101.93 67.0143C104.276 79.9478 95.6891 92.3702 82.7255 94.7012ZM73.1005 41.3577C56.5876 44.3505 45.6241 60.1415 48.6018 76.6544C51.5796 93.1673 67.4007 104.116 83.9135 101.138C100.426 98.1602 111.375 82.3391 108.382 65.8413C105.389 49.3434 89.5983 38.3649 73.1005 41.3577Z" fill="#005D9F"/>
<path fill-rule="evenodd" clip-rule="evenodd" d="M44.6917 47.4485H44.6014L41.9846 47.7944C41.6237 47.8395 41.368 48.1704 41.4131 48.5313L41.759 51.1481C41.7891 51.3286 41.8794 51.479 42.0297 51.5842C42.1651 51.6895 42.3305 51.7346 42.496 51.7045L45.1127 51.3586C45.4586 51.3286 45.7143 51.0278 45.6842 50.6668V50.6518L45.3383 48.035C45.3083 47.8545 45.218 47.7041 45.0676 47.6139C44.9624 47.5237 44.827 47.4635 44.6917 47.4485ZM42.4057 51.9452C42.2102 51.9452 42.0147 51.885 41.8643 51.7647C41.6838 51.6293 41.5635 51.4038 41.5335 51.1782L41.1876 48.5614C41.1725 48.3358 41.2327 48.0952 41.368 47.9147C41.5184 47.7342 41.729 47.6139 41.9545 47.5838L44.5563 47.2379C44.7969 47.2079 45.0225 47.268 45.218 47.4034C45.3985 47.5538 45.5188 47.7643 45.5639 47.9899L45.8948 50.6067C45.97 51.0879 45.6391 51.5241 45.1579 51.5993H45.1428L42.526 51.9452H42.4057Z" fill="#B3D4EF"/>
<path fill-rule="evenodd" clip-rule="evenodd" d="M90.8766 77.4364C90.8766 80.9405 88.6659 82.6849 85.252 82.6849C81.838 82.6849 79.5973 80.9405 79.5973 77.4364C79.5973 73.9323 81.8983 72.0224 85.252 72.0224C88.6056 72.0224 90.8766 73.9774 90.8766 77.4364ZM85.1618 55.013C91.4181 55.013 95.2228 50.8925 95.2228 44.7865C95.2228 37.7032 91.9595 33.6576 84.861 33.6576C81.9585 33.6576 79.071 34.7255 78.379 35.7181C79.8981 36.6354 80.2891 37.7032 80.2891 39.0716C80.2891 41.5833 78.379 43.5833 75.1759 43.5833C71.9725 43.5833 69.852 41.4329 69.852 38.38C69.852 33.1464 76.3339 27.8827 86.6958 27.8827C96.2155 27.8827 107.269 31.6124 107.269 44.4857C107.269 55.705 98.8925 60.7279 89.3575 61.089L88.5155 66.8038H82.4247V55.013H85.1618Z" fill="#FFCD2E"/>
</svg>
