<svg width="90" height="90" viewBox="0 0 90 90" fill="none" xmlns="http://www.w3.org/2000/svg">
<rect width="90" height="90" fill="#D9D9D9"/>
<path d="M63.0003 29.2C62.7402 28.456 62.3043 27.7857 61.7298 27.246C61.1554 26.7063 60.4592 26.3132 59.7003 26.1C59.7003 26.1 55.0003 25 45.0003 25C35.0003 25 30.3003 26.1 30.3003 26.1C29.5415 26.3132 28.8453 26.7063 28.2708 27.246C27.6963 27.7857 27.2605 28.456 27.0003 29.2C24.3332 39.5645 24.3332 50.4355 27.0003 60.8C27.2644 61.5365 27.6883 62.2054 28.2416 62.7587C28.7949 63.312 29.4638 63.7359 30.2003 64C30.2003 64 34.1003 65 45.0003 65C55.9003 65 59.8003 64 59.8003 64C60.5369 63.7359 61.2058 63.312 61.759 62.7587C62.3123 62.2054 62.7362 61.5365 63.0003 60.8C64.2827 55.6297 64.9539 50.3268 65.0003 45C64.9539 39.6732 64.2827 34.3703 63.0003 29.2ZM42.7003 57.3H31.4003V56.4H34.9003L39.3003 33.6H36.1003V32.6H47.3003V33.6H43.8003L39.5003 56.4H42.7003V57.3ZM58.6003 33.6H55.6003L45.9003 42.5L54.5003 56.4H57.8003V57.3H45.9003V56.4H49.4003L42.2003 44.4L53.9003 33.6H50.2003V32.6H58.6003V33.6Z" fill="white"/>
</svg>
